<?xml version="1.0" encoding="utf-8"?>
<!-- Generator: Adobe Illustrator 26.2.1, SVG Export Plug-In . SVG Version: 6.00 Build 0)  -->
<svg version="1.1" id="Acr1408873ÊImage" xmlns="http://www.w3.org/2000/svg" xmlns:xlink="http://www.w3.org/1999/xlink" x="0px"
	 y="0px" viewBox="0 0 588.96 604.14" style="enable-background:new 0 0 588.96 604.14;" xml:space="preserve">
<style type="text/css">
	.st0{fill:#2B2B2B;stroke:#EBEBEB;stroke-miterlimit:10;}
	.st1{fill:#9B9B9B;stroke:#FBFBFB;stroke-miterlimit:10;}
	.st2{fill:#A7A7A7;stroke:#EBEBEB;stroke-miterlimit:10;}
	.st3{fill:#C7C7C7;stroke:#EBEBEB;stroke-miterlimit:10;}
	.st4{fill:#FCFCFC;stroke:#EBEBEB;stroke-miterlimit:10;}
	.st5{fill:#CBCBCB;stroke:#EBEBEB;stroke-miterlimit:10;}
	.st6{fill:#E1E1E1;stroke:#EBEBEB;stroke-miterlimit:10;}
	.st7{fill:#BCBCBC;stroke:#EBEBEB;stroke-miterlimit:10;}
	.st8{fill:#A1A1A1;stroke:#EBEBEB;stroke-miterlimit:10;}
	.st9{fill:#8C8C8C;stroke:#EBEBEB;stroke-miterlimit:10;}
	.st10{fill:#B8B8B8;stroke:#EBEBEB;stroke-miterlimit:10;}
	.st11{fill:#A6A6A6;stroke:#EBEBEB;stroke-miterlimit:10;}
	.st12{fill:#989898;stroke:#EBEBEB;stroke-miterlimit:10;}
	.st13{fill:#B9B9B9;stroke:#D5D5D5;stroke-miterlimit:10;}
	.st14{fill:#949494;stroke:#EBEBEB;stroke-miterlimit:10;}
	.st15{fill:#DBDBDB;stroke:#EBEBEB;stroke-miterlimit:10;}
	.st16{fill:#C5C5C5;stroke:#EBEBEB;stroke-miterlimit:10;}
	.st17{fill:#D0D0D0;stroke:#EBEBEB;stroke-miterlimit:10;}
</style>
<g>
	<path class="st0" d="M558.26,189.23c1.73-22.42-16.84-43.8-30.06-60.37c-17.8-22.31-35.49-45.95-61.47-59.21
		c-29.48-15.05-60.84-28.07-93.77-32.8c-32.23-4.63-86.5-9.77-100.28-3.58c-16.42-4.24-37.52,5.9-52.9,10
		c-20.46,5.45-37.57,11.26-55.39,23.14c-31.01,20.66-54.16,49.04-65.22,84.84c-3.17,10.26-5.4,20.55-9.33,30.6
		c-4.17,10.67-9.67,20.74-12.79,31.79c-2.44,8.64-2.64,17.49,0.13,26c1.58,4.84,3.82,9.06,4.34,14.24
		c0.61,6.05-4.79,12.54-8.35,16.8c-5.39,6.44-12.17,11.77-18.72,16.96c-2.86,2.27-9.46,5.46-10.46,9.62
		c-2.26,9.48,5.29,24.63,12.29,30.64c0.13,0.11,0.26,0.15,0.4,0.22c-0.09,0.18-0.19,0.36-0.22,0.6c-0.97,6.53-2.4,11.15,0.44,17.33
		c1.09,2.38,3.36,4.57,5.02,6.51c4.18,4.88,4.44,11.61,5.68,17.56c1.72,8.22,7.57,15.67,7.44,24.2c-0.08,5.46-4.37,11.43-6.98,15.99
		c-5.18,9.05-27.58,36.87-12.66,46.08c-3.6,4.6-4.7,11.58-5.86,16.89c-0.51,2.32-1.63,6.54,0.83,8.23c1.73,1.19,3.68,1.38,5.6,0.97
		c-1.95,6.33,0.4,14.15,2.18,20.52c-1.94,0.32-3.42,1.32-2.61,3.8c0.8,2.46,2.27,4.39,3.86,6.41c6.61,8.34,6.33,18.77,1.25,27.77
		c-3.26,5.77-9.58,13.35-7.76,20.71c2.37,9.62,10.78,15.13,19.27,19.25c19.15,9.29,43.04,4.77,62.77,0.1
		c12.64-2.99,25.08-6.8,37.66-10.04c17-4.37,34.06-8.08,50.4-14.57c14.06-5.59,27.4-10.43,42.4-12.71
		c10.43-1.59,19.22-6.61,24.42-15.94c3.24-5.81,5.56-10.49,11.25-14.47c3.12-2.19,5.71-4.43,7.98-7.5
		c5.95-8.04-0.17-24.58-0.05-33.56c0.05-4.13,0.38-8.25,0.85-12.35c6.93-5.86,20.44-11.93,28.6-19.73
		c7.27-6.96,8.42-18.9,13.41-27.24c3.1-5.18,6.51-5.24,11.78-7.48c3.21-1.36,6.42-2.73,9.59-4.2c3.04-1.4,3.08,6.99,3.18,9.3
		c0.61,13.98,1.71,26.62,18.88,26.94c10.27,0.19,20.13-7.87,27.96-13.44c10.61-7.56,26.75-15.01,33.26-20.3
		c6.52-5.29,22.41-9.46,29.1-11.59c10.75-3.42,20.36-8.16,29.85-14.35c23.16-15.11,42.48-33.49,47.87-61.38
		c4.56-23.59,2.02-48.75,3.02-72.71C566.97,228.13,567.35,199.08,558.26,189.23z M325.87,391.51c8.61,9.92,10.87,18.31,4.48,30.79
		c-4.02,7.85-10.08,16.04-17.87,20.59c0.98-5.47,1.99-10.93,2.82-16.37C317.25,413.72,320.02,402.89,325.87,391.51z M288.86,396.3
		c-7.72,8.56-21.98,7.92-33.22,2.26c4.16-4.9,5.75-10.93,8.87-16.47c5.21-9.25,17.86-11.11,27.37-10.5c0.05,0,0.08-0.02,0.13-0.02
		C291.67,379.77,295.44,389.01,288.86,396.3z M208.88,465.16c0.84-0.94,1.51-2.03,2.09-3.31c2.44-5.37,0.58-11.04-3.03-15.27
		c2.45,0.08,4.9,0.31,7.35,0.73c1.35,7.86,1.67,15.78-0.89,24.4c-0.76,2.55-1.7,4.94-2.77,7.22c-1.36-0.05-2.69,0.1-4.01,0.36
		C209.73,475.09,211.02,469.42,208.88,465.16z"/>
	<path class="st1" d="M276.4,35.99c30.84-4.28,61.63,1.55,92.32,4.54c32.45,3.16,63.57,16.89,92.52,31.07
		c24.36,11.94,41.56,31.96,58.15,52.85c13.67,17.21,35.25,39.58,34.7,63.19c-0.11,0.08-0.2,0.19-0.28,0.34
		c-3.4,6.39-5.53,15.52-14.17,16c-0.73,0.04-1.14,0.64-1.02,1.33c0.72,4.01,1.62,7.88,0.95,11.9c-2.23-0.79-4.57-0.92-6.83-1.71
		c-0.74-0.26-1.54,0.56-1.3,1.29c1.06,3.12,1.45,6.3,1.95,9.52c-0.89,0.09-1.69,0.29-2.65,0.68c-0.42,0.17-0.8,0.51-0.77,1.01
		c0.14,2.49,0.83,4.92,1.35,7.35c0.43,2.04,0.67,4.07,0.34,6.14c-0.66,4.01-4.53,2.7-6.43,0.93c-3.65-3.38-6.23-6.94-11.71-5.38
		c-0.52,0.15-0.93,0.75-0.74,1.29c3.02,8.18,1.12,15.5,1.36,23.77c-1.25-0.06-2.44-0.23-3.66-0.65c-0.76-0.27-1.51,0.56-1.29,1.29
		c1.03,3.49,1.54,16.46-4.54,8.53c-0.37-0.49-1.18-0.79-1.65-0.21c-2.44,2.95-2.85,5.49-2.32,9.25c0.4,2.86,0.23,8.26-4.17,6.21
		c-0.39-0.18-1.18-0.39-1.58-0.09c-1.9,1.46-0.89,4.07-0.97,6.18c-0.06,1.66-1.16,6.75-2.34,9.2c-6.03,4.14-11.55,7.76-10.69,15.35
		c-6.5-0.93-9.45,3.47-10.43,9.79c-1.91,0.09-3.76-0.01-5.75-0.29c-2.67-0.39-2.23-1.04-2.94-3.25c-0.63-1.98-2.34-3.24-4.3-3.62
		c-4.62-0.89-7.26,3.68-7.84,7.67c-1.26-0.73-2.29-1.37-3.19-3.04c-0.26-0.49-0.97-0.68-1.44-0.38c-3.02,1.92-5.69,1.26-8.06-1.27
		c-0.3-0.32-0.9-0.43-1.27-0.16c-8.23,5.91-9.28-17.96-9.34-22.21c-0.19-12.46,4.01-25.11,1.55-37.48
		c-2.61-13.13-15.02-7.32-23.61-11.67c-5.81-2.94-5.91-10.64-10.01-15.06c-4.58-4.94-12.04-3.71-13.02-11.77
		c-0.09-0.74-0.6-1.12-1.33-1.01c-4.93,0.71-4.19-2.72-6.91-5.11c-2.64-2.32-7.58-2.8-10.91-3.27c-5.25-0.74-10.37-1.2-15.69-1.16
		c-1.46,0.01-7.06,0.96-8.29,0.84c-1.23-0.12-2.69-2.13-3.88-2.83c-2.21-1.29-3.82-0.29-5.89,0.83c-2.56,1.38-6.92,0.17-9.72,0.16
		c-1.82-0.01-3.4,0.57-5.03,1.32c-3,1.38-5.36,4.41-7.57,6.75c-3.76,3.98-8.51,2.58-13.16,1.04c-0.7-0.23-1.28,0.37-1.33,1.01
		c-0.34,3.94-5.14,7.62-7.43,10.75c-3.72,5.09-7.14,10.51-11.23,15.3c-1.93,2.26-3.91,4.35-5.78,6.52
		c-1.19-1.34-1.54-1.67-2.22-4.13c-0.34-1.24-2.13-1.87-3.05-2.71c-0.95-0.87-1.43-2.7-2.71-3.05c-2.04-0.56-3.1-0.9-4.79-2.34
		c-6.05-5.16-12.43-12.86-14.22-22.61c0.83-2.5,1.67-5,2.5-7.5c0.76-2.27,1.96-8.95,4.53-9.74c1.97-0.61,3.87-2.09,3.37-4.46
		c-0.55-2.64-3.46-3.47-5.59-4.56c-3.66-1.88,5.87-5.97,6.31-6.13c1.85-0.68,3.62-1.35,5.26-2.48c0.66-0.46,0.69-1.36,0-1.82
		c-2.23-1.48-5.25-2.12-7.74-3.02c-1.87-0.67-4.97-2.36-1.93-4.65c1.26-0.95,3.54-0.78,5.01-0.98c2.88-0.39,5.34-1.74,8.17-2.36
		c1.49-0.33,4-0.91,4.21-2.81c0.76-7.02-9.82-6.18-13.81-6.22c-1.49-0.02,0.84-1.65,1.34-1.91c1.05-0.55,2.35-0.73,3.5-0.93
		c2.61-0.45,5.28-0.46,7.9-0.8c2.18-0.29,4.93-1.32,3.42-3.95c-2.58-4.5-8.39-5.92-13.07-6.29c-2.71-0.21-1.04-0.8,0.87-2.13
		c2.91-2.03,5.79-1.98,9.11-2.06c2.21-0.06,6.74-1.23,6.39-4.07c-0.36-2.84-5.95-2.61-7.93-3.07c-1.21-0.28-5.35-0.99-2.69-2.46
		c2.83-1.57,6.17-2.47,9.23-3.5c0.91-0.31,1-1.39,0.25-1.92c-2.65-1.89-7.34-3.08-8.01-6.66c4.18,0.01,11.53-0.13,12.23-4.84
		c1.2-8.02-11.46-3.87-14.86-3.49c-1.75,0.2-7.58-2.38-1.92-5c3.06-1.42,6.73-1.39,10.05-1.73c4.4-0.46,15.42,0.86,15.64-3.97
		c0.21-4.83-12.76-1.67-14.34-5.88s11.01-2.61,16.28-5.4c0.48-0.25,0.7-0.98,0.38-1.44c-2.4-3.45-7.02-4.58-10.85-5.63
		c-2.11-0.58-4.36-0.98-6.36-1.89c-0.77-0.35,6.46-2.54,8.68-3.14c0.76-0.21,1.02-1.2,0.46-1.76c-1.69-1.68-3.44-3.28-5.29-4.77
		c2.32-1.19,4.47-2.68,6.98-3.52c0.68-0.23,0.93-0.91,0.63-1.55c-1.57-3.33-3.99-5.3-7.08-6.75c1.5-0.88,2.94-1.86,4.55-2.58
		c0.94-0.42,0.48-1.62-0.25-1.92c-1.56-0.64-3.02-1.6-4.58-2.26c1.52-1.45,2.66-3.19,4.33-4.6c0.66-0.56,0.21-1.51-0.46-1.76
		c-1.56-0.58-6.46-2.62-3.17-4.59c1.66-1,3.88-1.17,5.76-1.25c0.95-0.04,1.35-1.1,0.74-1.8c-0.86-0.99-1.66-2.22-2.74-2.99
		C274.54,39.01,275.23,37.06,276.4,35.99z"/>
	<path class="st2" d="M260.71,273.69c-0.34,2.03-2.35,3.88-3.57,5.43c-3.15,4-3.59,10.69-4.72,15.52
		c-1.61,6.84-2.94,13.74-3.91,20.7c-1.36,9.73,5.4,18.74,8.06,27.85c-4.96-0.47-9.9-1-14.7-1.33c-14.8-1.03-30.09-2.98-42.99-10.82
		c-12.56-7.64-16.12-21.06-20.42-34.15c-2.74-8.33-6.54-16.3-10.58-24.15c3.15-2.81,4.12-6.37,3.77-10.81
		c1.3-0.19,2.59-0.44,3.91-0.56c0.52-0.05,1.12-0.44,1.05-1.05c-0.7-6.16,2.31-7.77,6.91-10.61c1-0.61,2.24-1.42,2.84-2.45
		c0.79-1.35-0.63-3.82,1.43-3.87c5.26-0.14,10.06-3.51,10.91-8.61c5.58-0.28,7.21-5.04,11.69-7.57c3.21,4.43,7.21,2.68,10.35-1.04
		c3,3.81,6.44,2.3,8.99-1.67c3.43,2.39,6.47,1.94,9.26-0.84c2.38,7.85,8.05,15.75,13.87,21.15c1.43,1.33,4.14,2.66,5.37,2.84
		c1.23,0.18,1.1,1.98,1.75,2.81c1.27,1.59,2.62,0.18,3.16,2.28c0.48,1.89,1.34,3.14,2.6,4.47c-1.54,1.89-2.98,3.88-4.21,6.12
		c-0.96,1.74-1.06,3.06-1.01,5.07C260.56,270.23,261.02,271.81,260.71,273.69z"/>
	<path class="st3" d="M59.26,324.9c-2.91-0.89-8.82-11.84-10.4-17.47c-2.5-8.91,0.51-10.51,6.81-15.46
		c10.76-8.46,22.39-17.44,28.29-30.15c1.27-2.74,1.7-5.45,1.6-8.2c4.28,2.5,5.59,8.38,7.83,12.69c-4.16,1.75-4.94,4.6-5.88,9.31
		c-1.26,6.31-10.19,7.32-10.19,14.02c-0.01,4.53,0.54,7.66-2,11.81c-2.07,3.38-4.86,6.3-7.19,9.51
		C64.33,316.21,62.17,325.8,59.26,324.9z"/>
	<path class="st4" d="M53.8,480.59c-4.1,0.09-2.59-4.99-2.23-6.77c0.37-1.85,0.84-3.68,1.3-5.52c0.97-3.88,2.14-8.48,4.98-11.49
		c0.42-0.2,0.76-0.54,0.99-0.94c0.27-0.22,0.58-0.42,0.88-0.61c1.46,0.38,2.94,0.7,4.47,0.84c-5.08,3.96-5.57,13.68-6.42,19.25
		c-0.18,1.19-0.47,2.88-0.48,4.56C56.6,480.33,54.95,480.66,53.8,480.59z"/>
	<path class="st4" d="M90.55,460.19c3.66,0.52,7.31,1.22,10.98,1.5c0.48,0.04,0.97,0.04,1.45,0.06c1.96,2.53,4.03,8.47,4.15,13.45
		c-0.03,0.58-0.04,1.15-0.04,1.72c-0.21,2.55-1.06,4.67-2.93,5.61c-3.26,1.64-14.99,4.54-16.68-0.29c0.73-1.13,1.29-2.48,1.63-4.1
		c0.72-3.47,1.01-7.06,1.59-10.56C91.11,465.12,91.4,462.51,90.55,460.19z"/>
	<path class="st4" d="M110.89,461.5c0-0.01,0-0.01,0-0.02c3.78-0.35,7.57-0.92,11.26-1.43c0.09,0.28,0.3,0.53,0.69,0.62
		c1.92,0.46,2.66,4.11,3.01,7.19c0.1,0.86,0.4,5.61,0.13,7.79c-0.26,2.18-3.31,5.79-7.3,6.97c-2.5,0.74-5.24,0.7-7.61-0.41
		c-2.24-1.05-1.75-4.75-1.64-6.68C109.73,470.71,108.79,466.08,110.89,461.5z"/>
	<path class="st4" d="M180.18,469.65c-2.9,6.43-12.33,1.5-17.3,5.06c-10.43,7.46-13.21-11.46-10.58-18.34
		c0.02-0.04,0.01-0.08,0.02-0.12c5.69-0.84,11.37-1.85,17.02-3.21c1.56-0.37,3.13-0.76,4.7-1.15c0.08,0.05,0.15,0.12,0.25,0.15
		C179.74,454,182.35,464.84,180.18,469.65z"/>
	<path class="st0" d="M176.97,451.16c0.97-0.24,1.95-0.48,2.92-0.72c-0.25,1.25-0.32,2.44-0.26,3.63
		C178.87,452.93,178,451.92,176.97,451.16z"/>
	<path class="st0" d="M126.24,489.47c-0.46-2.45-0.99-4.9-1.35-7.37c-0.01-0.09-0.05-0.15-0.08-0.22c0.83-0.76,1.53-1.62,2.05-2.59
		c0.51,1.14,1.25,2.05,2.26,2.7C126.97,484.01,126.51,486.63,126.24,489.47z"/>
	<path class="st4" d="M128.07,500.2c-1.13-1.67-0.19-5.93-0.02-7.68c0.32-3.27-0.03-7.26,2.93-9.42c0.1-0.07,0.16-0.16,0.23-0.24
		c1.01,0.23,2.17,0.32,3.55,0.18c3.24-0.32,6.31-1.71,9.45-2.49c0.82-0.2,1.75-0.48,2.67-0.84c2.61,0.82,2.85,3.86,3.59,6.14
		c1.02,3.13,2.46,5.98,2.98,9.26c-6.84,1.94-13.74,3.67-20.92,4.55C131.04,499.84,129.56,500.02,128.07,500.2z"/>
	<path class="st4" d="M155.04,478.24c0.08-0.07,0.12-0.14,0.18-0.22c2.02,1.25,4.57,1.28,7.7-0.72c3.1-1.98,5.54-2.46,9.21-1.98
		c1.69,0.22,3.37-0.12,4.96-0.66c0.05,0.06,0.07,0.13,0.14,0.18c4.22,2.88,4.39,8.2,2.25,12.46c-0.1,0.2-0.12,0.39-0.1,0.58
		c-7.55,1.71-14.89,4.03-22.26,6.19c-0.01-0.07-0.01-0.13-0.04-0.2C155.27,489.76,150.48,481.96,155.04,478.24z"/>
	<path class="st0" d="M151.65,473.63c0.56,1.18,1.22,2.22,2,3.07c-0.03,0.02-0.06,0.02-0.09,0.05c-1.47,1.2-2.18,2.69-2.42,4.32
		c-0.46-1.03-1.08-1.92-1.96-2.56c0.93-0.67,1.68-1.51,2.01-2.61C151.4,475.18,151.55,474.42,151.65,473.63z"/>
	<path class="st0" d="M149.34,461.57c-0.81-1.67-1.77-3.22-2.87-4.51c1.18-0.15,2.36-0.32,3.54-0.49
		C149.61,457.96,149.38,459.69,149.34,461.57z"/>
	<path class="st4" d="M149.62,472.74c0.03,5.56-8.63,6.66-12.89,7.8c-2.67,0.71-6.8,1.32-8.05-1.84c-0.38-0.96-0.74-6.26-0.5-9.22
		c0.24-2.96,1.43-8.82,4.49-10.6c0.08-0.05,0.13-0.11,0.19-0.17c3.71-0.43,7.41-0.87,11.11-1.33c0,0.01,0.01,0.01,0.01,0.02
		C147.84,461.13,149.59,467.5,149.62,472.74z"/>
	<path class="st0" d="M127.28,463.29c-0.43-1.47-1.06-2.8-2.03-3.66c1.38-0.17,2.75-0.34,4.12-0.5
		C128.44,460.31,127.76,461.74,127.28,463.29z"/>
	<path class="st4" d="M120.46,484.3c0.94-0.28,1.75-0.65,2.5-1.08c0.91,5.74,2.84,11.51,1.98,17.36c-7.05,0.83-14.15,1.58-21.24,2
		c1.97-5.54-1.43-11.49-1.48-17.14c1.19-0.37,2.23-0.75,3.01-1.09c1.38-0.6,2.25-1.53,2.79-2.65
		C110.24,485.95,116.18,485.57,120.46,484.3z"/>
	<path class="st4" d="M79.18,486.63c2.76-0.21,5.12-1.05,6.89-2.69c2.22,3.9,8.89,3.36,14.07,2.06c0.29,5.38,3.79,11.64,1.24,16.68
		c-4.83,0.23-9.66,0.31-14.46,0.13c-1.77-0.07-3.24,0.07-4.67,0.33C80.56,497.71,81.59,491.86,79.18,486.63z"/>
	<path class="st4" d="M80.2,503.62c-1.1,0.3-2.23,0.66-3.52,1.06c-3.46,1.09-6.48-0.21-9.71-0.31c-2.34-5.76-3.6-11.96-3.77-18.18
		c2.81,0.29,5.82-0.3,8.39-1.11c0.03-0.01,0.05-0.03,0.08-0.04c1.11,0.86,2.52,1.45,4.35,1.59c0.29,0.02,0.57,0.03,0.86,0.04
		C79.81,491.89,78.52,498.04,80.2,503.62z"/>
	<path class="st0" d="M107.57,465.77c-0.44-1.4-1.03-2.74-1.88-3.98c0.97-0.02,1.96-0.1,2.94-0.16
		C108.11,463.01,107.75,464.38,107.57,465.77z"/>
	<path class="st4" d="M87.71,472.9c-0.3,2.34-0.54,4.67-1.18,6.95c-1.03,3.63-4.89,4.45-8.1,4.75c-12.49,1.14-7.28-18.84-2.81-24.57
		c0.13-0.17,0.19-0.35,0.21-0.52c2.29,0.16,4.61,0.12,6.92,0.08c1.78-0.03,3.56,0.1,5.33,0.29
		C90.34,463.54,88.23,468.93,87.71,472.9z"/>
	<path class="st4" d="M70.09,483.3c-2.58,0.71-5.25,1.03-7.91,0.66c-4.46-0.63-2.39-8.03-2.04-10.58c0.64-4.66,1.58-14.5,6.72-16.44
		c0.8,0.48,1.56,1.07,2.55,1.4c1.39,0.46,2.8,0.75,4.22,0.94C70.09,464.49,66.18,477.21,70.09,483.3z"/>
	<path class="st4" d="M57.89,483.41c0.35,0.74,0.85,1.36,1.63,1.75c0.5,0.26,1.02,0.45,1.56,0.62c0.06,2.87,0.36,5.7,0.84,8.53
		c1.18,6.96,3.31,9.9,3.31,9.9s-3.2-0.21-4.91-1.35C58.63,496.86,56.24,489.44,57.89,483.41z"/>
	<path class="st5" d="M306.81,452.28c-1.89,12.2-2.9,24.49-0.86,36.72c1.77,10.6-0.22,15.91-9.04,22.1
		c-3.98,2.79-6.41,6.22-8.66,10.47c-3.2,6.04-5.79,10.34-11.79,14.14c-6.58,4.16-14.42,3.9-21.76,5.53
		c-16.46,3.65-31.47,11.19-47.4,16.52c-15.42,5.16-31.84,8.08-47.56,12.25c-12.38,3.28-24.61,6.94-37.18,9.42
		c-12.69,2.5-25.8,3.46-38.56,0.98c-14.4-2.8-33.78-14.9-23.71-31.14c4.9-7.9,9.05-14.23,8.43-23.88c-0.22-3.35-1.58-8.33-3.39-11.2
		c-0.92-1.45-8.23-9.5-3.32-8.27s9.34,2.49,13.39,1.34c4.08-1.16,7.24-2.5,11.51-2.36c14.62,0.49,29.11-1.38,43.63-2.92
		c15.35-1.63,29.45-6.61,44.21-10.77c6.63-1.87,13.52-2.58,19.97-5.02c4.87-1.84,10.44-5.16,15.88-5.22
		c-12.71,24.22-42.21,33.58-62.42,50.75c-2.07,1.76-5.84,7.16-3.78,5.41c23.3-19.79,59.95-30.57,72.71-60.72
		c5.52-13.04,3.96-25.91,0.65-39.27c-3.58-14.49-6.03-35.2-5.56-43.99c2.47-0.94,4.89-2.01,7.25-3.31
		c5.45-3.01,10.55-6.8,15.91-9.96c3.19,25,46.21,37.47,59.91,14.74c1.59-2.64,2.93-6.76,2.77-9.77c-0.56-10.1-3.47-18.32,6.92-25.3
		c7.78-5.22,20.01-2.67,23.01,6.62c1.86,5.77-1.06,12.98-3.32,18.22c-3.78,8.75-8.47,15.93-10.73,25.4
		C310.64,423.64,308.99,438.21,306.81,452.28z"/>
	<path class="st4" d="M205.2,479.4c-0.11,0.19-0.13,0.37-0.13,0.54c-1.76,0.54-3.49,1.23-5.2,1.91c-4.21,1.68-8.2,2.99-12.38,4.09
		c-2.37-4.97-7.36-10.3-3.48-15.51c2.63,2.35,7.15,1.25,9.79-0.92c3.93-3.23,7.91-0.1,11.84-1.97c0.58-0.28,1.1-0.6,1.58-0.94
		C208.87,470.57,207.18,475.96,205.2,479.4z"/>
	<path class="st6" d="M141.24,483.84c2.71-0.63,5.45-1.05,8.19-1.42c-0.48-1.23-1.19-2.28-2.56-2.71c-0.92,0.36-1.85,0.63-2.67,0.84
		c-3.14,0.78-6.22,2.17-9.45,2.49c-1.37,0.14-2.54,0.05-3.55-0.18c-1.04,0.37-1.8,1.89-2.2,2.92
		C133.07,485.4,137.1,484.8,141.24,483.84z"/>
	<path class="st6" d="M163.51,480.2c5.08-1.21,10.03-2.92,15.09-4.21c-0.4-0.42-0.85-0.81-1.36-1.16c-0.07-0.05-0.09-0.12-0.14-0.18
		c-1.59,0.54-3.27,0.89-4.96,0.66c-3.67-0.49-6.11,0-9.21,1.98c-3.13,2-5.68,1.97-7.7,0.72c-0.05,0.07-0.09,0.15-0.18,0.22
		c-1.21,0.99-1.75,2.27-1.87,3.69C156.64,481.48,160.1,481.01,163.51,480.2z"/>
	<path class="st6" d="M119.42,486.23c1.38-0.01,2.72-0.06,4.07-0.11c-0.19-0.97-0.38-1.93-0.53-2.9c-0.75,0.42-1.56,0.8-2.5,1.08
		c-4.28,1.27-10.22,1.66-12.44-2.6c-0.54,1.11-1.41,2.05-2.79,2.65c-0.78,0.34-1.82,0.72-3.01,1.09c0.01,0.99,0.12,1.98,0.29,2.98
		C108.13,487.56,113.67,486.26,119.42,486.23z"/>
	<path class="st6" d="M97.09,489.03c1.14-0.08,2.28-0.2,3.41-0.35c-0.18-0.91-0.31-1.81-0.36-2.68c-5.17,1.29-11.85,1.84-14.07-2.06
		c-1.77,1.64-4.13,2.48-6.89,2.69c0.34,0.73,0.59,1.48,0.81,2.23C85.67,489.44,91.15,489.43,97.09,489.03z"/>
	<path class="st6" d="M74.15,488.07c1.22,0.21,2.4,0.34,3.59,0.49c-0.24-0.64-0.52-1.28-0.87-1.9c-0.29-0.01-0.57-0.01-0.86-0.04
		c-1.83-0.14-3.24-0.73-4.35-1.59c-0.03,0.01-0.04,0.03-0.08,0.04c-2.57,0.81-5.58,1.4-8.39,1.11c0.02,0.61,0.09,1.21,0.13,1.81
		C66.92,488.01,70.6,487.47,74.15,488.07z"/>
	<path class="st6" d="M183.03,474.99c8.3-1.54,17.48-2.45,24.66-6.84c-0.11-0.53-0.26-1.04-0.46-1.53c-0.48,0.34-1,0.66-1.58,0.94
		c-3.93,1.87-7.91-1.27-11.84,1.97c-2.64,2.18-7.17,3.28-9.79,0.92c-1.15,1.54-1.51,3.09-1.4,4.64
		C182.75,475.05,182.89,475.01,183.03,474.99z"/>
	<path class="st4" d="M208.63,461.94c-2.9,6.37-8.95,1.47-13.35,3.93c-3.97,2.22-10.03,7.32-11-0.78
		c-0.63-5.23-3.63-9.68-2.12-15.11c0.01-0.03,0-0.06,0.01-0.09c7.55-1.78,15.19-3.24,22.88-3.34
		C209.43,450.78,211.22,456.25,208.63,461.94z"/>
	<path class="st6" d="M61.69,459.03c0.68-1.14,1.49-2.14,2.48-2.91c-1.53-0.14-3-0.46-4.47-0.84c-0.3,0.19-0.6,0.39-0.88,0.61
		c-0.23,0.4-0.57,0.74-0.99,0.94c-0.36,0.38-0.69,0.78-0.99,1.2C58.48,458.14,60.1,458.55,61.69,459.03z"/>
	<path class="st6" d="M91.03,464.84c1.82-0.11,3.77-0.49,5.46-0.37c3.63,0.25,6.71,2.09,9.57,4.17c-0.81-2.86-1.95-5.44-3.07-6.88
		c-0.48-0.02-0.97-0.02-1.45-0.06c-3.68-0.28-7.32-0.98-10.98-1.5C91.09,461.66,91.14,463.25,91.03,464.84z"/>
	<path class="st6" d="M125.76,467.12c-0.38-2.9-0.99-6.3-3.6-7.07c-3.69,0.52-7.48,1.09-11.26,1.43c0,0.01,0,0.01,0,0.02
		c-0.79,1.73-1.15,3.46-1.31,5.21C114.03,463.74,120.78,465.05,125.76,467.12z"/>
	<path class="st6" d="M177.33,456.46c0.47,0.03,0.94,0.03,1.41,0.01c-1.12-2.1-2.62-3.78-4.45-4.44c-0.1-0.03-0.17-0.1-0.25-0.15
		c-1.57,0.39-3.14,0.78-4.7,1.15c-5.66,1.36-11.33,2.37-17.02,3.21c-0.01,0.04,0,0.07-0.02,0.12c-0.68,1.78-0.99,4.37-0.91,7.09
		C157.39,456.7,168.96,455.96,177.33,456.46z"/>
	<path class="st6" d="M151.26,488.08c-1.43,3.29-5.08,5.74-11.16,7.64c-3.97,1.24-10.11,2.49-12.52,0.56
		c-0.13,1.53-0.09,3.07,0.49,3.92c1.48-0.18,2.97-0.36,4.45-0.54c7.18-0.89,14.08-2.61,20.92-4.55
		C153.05,492.62,152.13,490.38,151.26,488.08z"/>
	<path class="st6" d="M154.51,488.25c0.85,2.11,1.91,4.11,2.57,5.61c0.03,0.07,0.03,0.13,0.04,0.2c7.37-2.17,14.71-4.48,22.26-6.19
		c-0.02-0.18,0-0.37,0.1-0.58c0.62-1.24,1.02-2.57,1.21-3.9C176.47,488.04,162.21,492.18,154.51,488.25z"/>
	<path class="st6" d="M133.89,461.8c1.65-0.88,3.37-1.71,5.25-1.93c2.72-0.31,5.19,0.17,7.52,1.11c-0.75-1.34-1.63-2.57-2.69-3.59
		c-0.01,0-0.01-0.01-0.01-0.02c-3.69,0.46-7.4,0.9-11.11,1.33c-0.06,0.06-0.11,0.12-0.19,0.17c-2.22,1.29-3.39,4.19-4,7.2
		C130.54,464.51,133.19,462.18,133.89,461.8z"/>
	<path class="st6" d="M104.28,499.62c-0.06,0.99-0.24,1.98-0.58,2.95c7.1-0.41,14.2-1.16,21.24-2c0.18-1.2,0.21-2.39,0.19-3.58
		C121.42,501.27,111.23,500.12,104.28,499.62z"/>
	<path class="st6" d="M98.9,499.57c-4.31,0.67-8.51,1.28-12.79,0.13c-1.81-0.49-3.26-0.74-4.71-0.65c0.18,1.38,0.43,2.75,0.85,4.1
		c1.43-0.27,2.9-0.4,4.67-0.33c4.81,0.18,9.63,0.1,14.46-0.13c0.51-1.01,0.77-2.08,0.87-3.17
		C100.91,499.44,99.74,499.44,98.9,499.57z"/>
	<path class="st6" d="M66.98,504.37c3.23,0.1,6.25,1.4,9.71,0.31c1.29-0.41,2.42-0.77,3.52-1.06c-0.42-1.38-0.65-2.8-0.81-4.23
		C74.3,504.43,66.6,503.45,66.98,504.37z"/>
	<path class="st6" d="M74.87,463.02c2.41-0.38,5-0.64,7.43-0.37c2.4,0.28,4.1,1.67,6.35,2.09c0.13,0.02,0.27,0.03,0.41,0.05
		c0.1-1.78-0.11-3.48-0.99-4.91c-1.77-0.2-3.54-0.32-5.33-0.29c-2.3,0.03-4.62,0.07-6.92-0.08c-0.03,0.18-0.08,0.36-0.21,0.52
		c-0.61,0.79-1.24,1.85-1.83,3.08C74.14,463.09,74.49,463.09,74.87,463.02z"/>
	<path class="st6" d="M65.36,460.14c2.54,0.7,4.14,2.15,6.31,2.73c0.63-1.4,1.3-2.63,1.96-3.6c-1.42-0.2-2.84-0.49-4.22-0.94
		c-0.99-0.32-1.75-0.91-2.55-1.4c-1.28,0.48-2.3,1.46-3.12,2.72C64.28,459.83,64.82,459.99,65.36,460.14z"/>
	<path class="st6" d="M184.54,480.64c0.98,1.8,2.12,3.58,2.94,5.31c4.18-1.1,8.17-2.41,12.38-4.09c1.71-0.68,3.44-1.37,5.2-1.91
		c0-0.17,0.02-0.35,0.13-0.54c1.02-1.78,1.97-4.09,2.41-6.44C204.38,477.79,190.3,484.97,184.54,480.64z"/>
	<path class="st6" d="M198.67,451.18c3.39-0.28,6.7-0.1,9.97,0.34c-0.82-1.78-2.04-3.45-3.61-4.96c-7.68,0.11-15.32,1.57-22.88,3.34
		c-0.01,0.03,0,0.06-0.01,0.09c-0.59,2.13-0.48,4.12-0.1,6.05C187.59,454.86,192.95,451.66,198.67,451.18z"/>
	<path class="st0" d="M182.88,481.69c0.83,1.58,1.75,3.17,2.54,4.78c-1.21,0.29-2.43,0.58-3.69,0.84
		C182.5,485.48,182.9,483.57,182.88,481.69z"/>
	<path class="st7" d="M207.37,394.76c-7.06,2.33-13.09,3.47-20.25,5.78c-10.82,3.49-20.95,8.69-31.8,12.23
		c-10.91,3.57-15.98,6.71-22.64,11.97c-2.12,1.67-7.86,6.26-6.34,4c4.02-5.99,8.69-10.96,14.61-14.53
		c-1.63-3.54-5.23-5.97-7.95-8.65c-2.17-2.14-3.36-3.92-1.71-6.81c3-5.26-4.93-4.73-4.29-9.13c0.18-1.21,0.63-2.31,0.84-3.5
		c0.26-1.51-1.43-3.95-2.1-5.25c-1.3-2.55-2.61-5.06-4.77-7.01c-9.89-8.95-28.77-16.66-24.7-32.5c-4.5-3.63-8.03-10.45-8.81-17.61
		c-0.78-7.15,1.33-15.44,1.58-8.94c0.35,9.29,3.65,15.45,5.08,17.71c7.56,11.98,23.08,13.16,34.72,1.73
		c5.2-5.1,9.17-11.08,11.68-17.56c-0.69-1.31-1.43-2.74-2.62-3.66c-1-0.77-2.17-0.92-3.37-0.87c-0.09,1.67-0.21,3.33-0.77,4.67
		c-1.33,3.19-5.05,5.66-7.58,7.81c-7.46,6.33-22.94,11.04-27.67,7c-2.37-2.02-2.28-7.28-2.1-13.68c0.17-6.4-1.05-11.05,2.63-17.88
		c2.91-5.4,0.7-17.89,6.52-23.44c-2.8-3.91-7.99-4.71-10.99-8.49c-6.4,1.08-3.39,9-8.33,13.35c-3.47,3.06-7.34,4.13-6.66,9.99
		c0.3,2.64,0.29,6.11-0.98,8.5c-3.39,6.39-9.34,11.09-11.48,18.14c-1.38,4.55-2.87,8.34-6.58,11.07c-3.94,9.29-0.7,14.09,4.38,20.38
		c1.08,1.34,3.02,3.31,3.52,4.99c2.63,8.68,3.62,17.4,7.24,25.82c3.28,7.63,4.8,14.09,1.34,21.83c-2.85,6.39-18.97,27.87-21.7,41.15
		c-0.82,3.99-0.47,7.51,1.88,9.12c2.36,1.61,6.22,1.75,7.52,1.6c0.45-0.05,1.61-0.41,2.22-0.05c2.68,1.57,4.17,2.98,7.55,3.27
		c5.17,0.45,10.3,0.05,15.46,0.74c7.21,0.96,13.65,1.72,20.94,1.08c7.2-0.64,14.36-1.61,21.53-2.5c7.93-0.98,15.97-1.36,23.82-2.85
		c7.23-1.38,14.35-3.22,21.5-4.94c12.2-2.95,24.64-5.57,37.18-3.66c-1.34-6.95-3.35-13.91-4.75-21.33
		C208.32,414.11,207.36,394.83,207.37,394.76z"/>
	<path class="st8" d="M90.9,317.56c1,2.95,3.18,8.65,6.09,11.49c-0.8-2.64-0.74-6.57-0.61-11.1c0.17-6.4-1.05-11.05,2.63-17.88
		c2.91-5.4,0.7-17.89,6.52-23.44c-1.44-2.01-3.5-3.2-5.58-4.39c-4.83,7.88-9.79,15.94-11.03,24.91
		C88,303.85,88.73,311.15,90.9,317.56z"/>
	<path class="st2" d="M255.86,373.03c-5.14,0.66-12.69,2.78-16.44,4.64c0.28,7.52,5.5,14.23,12.62,18.82
		c0.04-0.08,2.61-1.98,4.77-6.29c2.5-5,4.86-12.67,8.59-15.5c0.5-0.38,1.03-0.69,1.55-1.04
		C263.17,374.27,259.27,374.31,255.86,373.03z"/>
	<path class="st9" d="M258.52,373.76c-0.91-0.17-1.8-0.4-2.66-0.73c-5.14,0.66-12.69,2.78-16.44,4.64
		c0.28,7.52,5.5,14.23,12.62,18.82c0.04-0.08,2.61-1.98,4.77-6.29c0.85-1.71,1.7-3.73,2.58-5.76
		C259.18,380.87,258.89,377.31,258.52,373.76z"/>
	<path class="st10" d="M264.4,98.93c-0.66-5.81,11.11-3.9,17.2-6.32c-4.05-4.29-11.78-2.89-16.34-6.25
		c-3.57-2.64,4.28-5.11,8.01-6.11c-1.56-1.52-3.14-2.99-4.91-4.29c-0.55-0.4-0.81-1.47,0-1.82c2.66-1.13,5.02-2.79,7.67-3.92
		c-1.7-2.9-4.16-4.44-7.42-5.65c-0.75-0.28-1.17-1.51-0.25-1.92c1.65-0.74,3.12-1.76,4.67-2.66c-1.44-0.77-2.88-1.58-4.42-1.88
		c-0.95-0.19-0.96-1.46-0.25-1.92c1.83-1.19,2.97-2.91,4.38-4.44c-2.42-0.99-5.66-2.73-4.49-5.38c1.09-2.47,4.02-3.4,6.74-3.76
		c-1.36-1.17-2.79-2.6-2.23-4.13c0.14-0.38,0.31-0.64,0.5-0.83c-0.2,0-0.4,0.01-0.62-0.06c-9.22-2.78-20.55,0.99-29.43,3.46
		c-9.86,2.75-19.66,6.03-29.71,8.02c-19.49,3.85-36.71,13.44-52.71,24.93c-28.89,20.74-50.87,49.68-59.31,84.61
		c-2.31,9.56-5.29,18.69-9.02,27.79c-3.8,9.29-9.2,18.51-11.38,28.35c-1.44,6.49-3.04,14.03-0.91,20.59
		c1.34,4.12,3.38,8.15,4.44,12.34c0.31,1.2,0.55,2.38,0.71,3.56c5.21,2.15,6.64,7.7,9.07,12.57c0.42,0.85,0.88,1.56,1.36,2.2
		c0.09,0.09,0.16,0.19,0.22,0.3c1.75,2.22,3.9,3.37,6.74,4.97c2.24,1.26,3.8,2.72,4.99,4.86c4.67-2.71,10.59-6.83,14.8-2.22
		c1.7-1.45,3.58-2.59,5.83-1.56c1.04,0.48,1.37,1.99,1.58,2.96c0.03,0.12,0.56,2.78,0.6,3.4c0.38-0.04,2.67,1.49,2.67,2.26
		c0,0.88-2.09,2.5-2.91,4.1c1.38,0.78,2.74,1.6,4.13,2.36c0.55,0.3,0.74,1.23,0.21,1.65c-0.85,0.67-2.24,0.94-2.31,1.53
		c-0.18,1.42,2.28,3.11,2.13,5.17c-0.13,1.65-1.27,3.03-1.07,4.13c0.25,1.4,1.96,2.48,2.86,4.42c0.21,0.46,0.17,0.89-0.16,1.27
		c-0.97,1.11-1.28,2.73-1.43,4.47c1.51-0.04,2.96,0.23,4.26,1.12c1.06,0.73,1.85,1.78,2.52,2.89c2.3-7.18,2.85-14.92,1.32-22.8
		c-2.75-14.07-9.42-27.55-19.56-37.81c-2.54-2.57-17.81-18.06-21.54-11.25c-2.98,5.44-2.98,11.4-1.93,18.06
		c0.42,2.67-1.7-0.47-2.1-3.16c-0.53-3.51-2.32-14.03,3.43-19.09c4.92-4.33,12.97,2.08,16.66,4.84
		c7.86,5.88,14.82,13.79,20.05,22.69c2.21-1.56,5.69-3.73,6.9-1.63c1.03,1.79,1.29,3.86,2.29,5.65c1,1.78,3.67-1.15,4.88-1.44
		c3.9-0.94,1.19,8.25,5.78,4.36c3.23-2.74,3.56,1.14,6.08,1.03c-4.77-9.42-9.91-18.69-14.53-28.09
		c-5.81-11.85-15.02-27.62-11.65-41.42c3.6-14.75,10.4-20.81,20.45-31.86c6.33-6.95,13.47-10.09,11.54-8.16
		c-6.14,6.14-12.75,14-17.88,20.87c-5.26,7.02-11.28,16.64-10.36,26.09c1.6,16.46,11.15,31.8,18.54,46.27
		c2.3,4.51,4.71,9.01,7.07,13.55c2.58-2.57,3.06-5.81,2.6-9.75c-0.07-0.61,0.54-1,1.05-1.05c1.31-0.12,2.6-0.37,3.89-0.56
		c-0.26-3.15,0.08-6.33,2.85-8.37c1.64-1.21,3.51-2.02,5.19-3.17c2.44-1.68,1.68-3.77,2.96-6.06c0.18-0.32,0.54-0.52,0.91-0.52
		c4.48-0.03,10.17-2.66,10.44-7.57c0.03-0.56,0.46-1.07,1.05-1.05c5.84,0.2,7.61-5.57,12.39-7.75c0.53-0.24,1.12-0.15,1.44,0.38
		c3.24,5.38,6.56,0.89,8.24-1.44c0.45-0.63,1.38-0.72,1.82,0c3.2,5.35,5.65,0.64,6.8-1.44c0.35-0.63,1.67-0.76,2.37,0.12
		c0.7,0.88,5.44,2.63,6.9-1.44c1.31-3.92,2.61-7.83,3.92-11.75c0.59-1.76,0.96-5.29,2.42-6.6c0.74-0.67,6.33-3.09,3.04-4.88
		c-1.32-0.71-3.01-1.21-4.13-2.22c-4.94-4.43,5.84-8.68,10.57-10.76c-3.05-1.15-6.95-1.4-9.12-3.57c-2.16-2.16-0.21-6.11,2.02-7.16
		c2.08-0.97,4.58-0.57,6.75-1.18c1.86-0.52,3.48-1.44,5.4-1.86c0.62-0.14,4.44-0.65,3.13-2.4c-1.82-2.44-3.8-2.7-6.46-2.7
		c-2.25,0-4.56,0.24-6.78-0.22c-0.46-0.09-0.77-0.57-0.77-1.01c-0.05-6.12,8.68-5.95,12.92-6.32c0.48-0.04,4.57-0.41,4.08-1.05
		c-1.29-1.69-3.62-3.44-5.54-4.28c-2.47-1.09-7.19,0.09-9.17-1.88c-2.23-2.23,3.4-5.37,4.68-6.04c2.47-1.29,4.59-1.33,7.35-1.4
		c1.65,0.24,6.14-0.17,5.08-1.74c-1.05-1.58-3.33-0.74-4.41-0.98c-1.21-0.28-2.46-0.53-3.63-0.94c-8.58-3.02,1.49-6.93,6.63-8.68
		c-3.52-2.02-7.39-3.59-7.23-8.32c0.02-0.57,0.46-1.05,1.05-1.05c2.91,0,8.84,0.45,10.85-2.05c2.99-3.7-2.9-3.69-3.94-3.56
		c-1.38,0.18-2.72,0.46-4.08,0.75c-1.4,0.3-2.88,0.7-4.32,0.74c-2.62,0.08-8.18-3.28-6.24-6.59c2.14-3.66,8.93-3.76,12.57-4.16
		c3.96-0.43,14.49,1.18,14.69-1.49C279.32,103.08,265.06,104.74,264.4,98.93z"/>
	<path class="st11" d="M123.18,253.46c-2.54-2.57-17.81-18.06-21.54-11.25c-2.98,5.44-2.98,11.4-1.93,18.06
		c0.06,0.4,0.06,0.65,0.03,0.81c1.1,3.52,2.52,7.04,3.81,10.69c1.8,1.15,3.14,2.48,4.18,4.34c4.67-2.71,10.59-6.83,14.8-2.22
		c1.7-1.45,3.58-2.59,5.83-1.56c1.04,0.48,1.37,1.99,1.58,2.96c0.03,0.12,0.56,2.78,0.6,3.4c0.38-0.04,2.67,1.49,2.67,2.26
		c0,0.88-2.09,2.5-2.91,4.1c1.38,0.78,2.74,1.6,4.13,2.36c0.55,0.3,0.74,1.23,0.21,1.65c-0.85,0.67-2.24,0.94-2.31,1.53
		c-0.18,1.42,2.28,3.11,2.13,5.17c-0.13,1.65-1.27,3.03-1.07,4.13c0.25,1.4,1.96,2.48,2.86,4.42c0.21,0.46,0.17,0.89-0.16,1.27
		c-0.97,1.11-1.28,2.73-1.43,4.47c1.51-0.04,2.96,0.23,4.26,1.12c1.06,0.73,1.85,1.78,2.52,2.89c2.3-7.18,2.85-14.92,1.32-22.8
		C140,277.2,133.32,263.71,123.18,253.46z"/>
	<path class="st3" d="M237.51,369.64c-4.1,0.02-5.42-0.65-6.51-4.34c-0.8-2.72-6.1-1.05-8.17-1.72c-2.16-0.7-3.96-2.05-5.75-3.4
		c-0.36-0.27-0.48-0.63-0.46-0.97c-0.47-0.18-1.61-1.76-2.03-2.21c-0.3-0.32-1.26-0.99-1.22-1.22c-0.19-0.07-0.37-0.18-0.52-0.38
		c-4.26-5.7-7.97-10.49-8.62-16.14c-5.73-2.51-10.9-5.89-15.14-10.53c-8.81-9.65-11.24-21.61-15.68-33.52
		c-2.5-6.7-5.51-13.22-8.72-19.65c-1.15,0.43-2.24,0.6-3.5-0.14c-0.45-0.26-0.89-0.76-1.1-1.23c-0.34-0.77-2.83,1.25-3.17,1.5
		c-2.59,1.91-4.06-1.24-4.38-3.21c-0.71-4.48-3.73,2.82-6.24-0.12c-1.01-1.19-1.62-2.53-2.11-4.01c-1.08-3.32-3.23-2.26-5.39-0.87
		c4.49,8.15,7.53,17.04,8.46,25.9c1.97,18.88-5.94,42.65-24.96,50.69c-9.04,3.82-17.58,2.99-24.18-1.33
		c-1.64,9,5.13,15.42,12.4,20.65c6.72,4.85,13.18,8.78,17,16.41c0.83,1.65,2.52,3.65,2.52,5.59c0,1.48-2.03,4.68-0.2,5.85
		c2.38,1.52,4.29,2.9,4.41,5.89c0.1,2.58-2.85,4.16,0.21,6.94c1,0.91,1.95,1.79,2.89,2.73c2.12,2.13,4.17,3.87,5.41,6.41
		c1.48-0.79,3.01-1.52,4.65-2.13c11.66-4.38,23.32-9.67,35.13-13.48c14.98-4.83,29.14-7.52,42.54-16.24
		c8.49-5.53,16.19-9.83,26.36-10.69c-1.22-0.71-2.47-1.35-3.89-1.58C244.11,368.52,240.92,369.62,237.51,369.64z"/>
	<path class="st12" d="M426.87,319.26c-3.81-11.7-2.68-24.34-1.3-36.32c0.86-7.5,4.14-25.07-6.49-27.34
		c-5.72-1.22-11.54,0.2-16.74-3.09c-6.71-4.24-5.69-14.05-13.2-17.46c-5.3-2.41-8.73-3.7-9.8-9.47c-1.94,0.18-3.7-0.01-5.14-1.61
		c-0.71-0.79-0.96-1.84-1.48-2.73c-1.24-2.14-4.78-3.04-7.14-3.51c-6.31-1.24-12.72-1.86-19.15-1.74c-3.96,0.07-8.42,1.08-9.65,0.22
		c-1.23-0.86-3.78-3.66-4.82-3.33c-1.98,0.62-3.95,2.84-8.52,2.38c-2.73-0.28-5.34-0.69-7.41-0.03c-2.77,0.89-4.83,3.26-7.25,5.89
		c-4.71,5.1-9.08,5.18-15.33,3.26c-0.62,2.77-2.32,4.27-4.4,6.56c-3.48,3.82-6.47,8.39-9.4,12.63c-3.43,4.97-7.67,8.98-11.43,13.66
		c-2.4,2.99-6.02,7.04-5.59,11.18c0.18,1.79,0.79,4.09,0.12,5.87c-0.76,2.01-1.92,3.58-3.24,5.25c-2.27,2.89-2.82,6.5-3.68,10.01
		c-1.7,6.91-3.31,13.87-4.45,20.9c-1.26,7.73-0.3,13.69,2.9,20.75c1.81,4.01,3.47,7.98,4.53,12.24c6.8,0.61,13.63,1.05,20.2,0.66
		c27.13-1.64,53.05-17.86,74.09-28.31c2.43-1.21-4.08,5.42-6.49,6.6c-16.83,8.24-46.73,27.93-80.43,25.29
		c-17.7-1.39-41.26-0.28-59.67-7.44c0.94,4.8,4.26,8.94,7.78,13.62c1.54,0.72,3.88,3.27,4.46,4.99c2.69,1.98,5.02,3.22,8.78,2.52
		c0.93-0.17,2.43-0.21,3.27,0.35c1.21,0.8,1.97,1.57,2.24,3.08c0.74,4.02,6.01,2.67,8.71,2.31c4.59-0.62,7.98,0.17,11.95,2.48
		c6.29,3.68,13.59,2.34,20.25,0.26c0.25-0.08,0.45-0.05,0.64,0.02c5.95-2.14,12.34-2.82,18.01-2.26c0.53-1.94,1.46-3.79,3.03-5.5
		c7.54-8.19,17.04-11.64,27.58-7.28c13.51,5.59,9.72,21.92,4.69,32.66c9.05,10.01,13.61,18.9,8.38,32.14
		c-4.22,10.7-13.88,21.46-24.63,27.99c-0.38,2.26-0.67,5.41-1,7.67c7.85-6.34,18.46-10.21,24.83-18.07
		c6.35-7.83,7.26-18.14,12.75-26.39c3.44-5.16,3.99-5.17,9.07-7.24c4.04-1.64,12.43-4.06,15.36-6.69
		c-0.16-6.98,1.78-13.72,3.33-20.48c0.74-3.2,3.87-4.41,4.49-7.85c0.59-3.25,0.46-6.54,0.83-9.81c0.05-0.49,0.29-0.86,0.77-1.02
		c18.61-6.04,36.91-16.73,46.65-34.5C427.91,322,427.3,320.59,426.87,319.26z"/>
	<path class="st11" d="M128.82,279.21c0,0.7,2.1,1.23,2.46,1.93c0.35,0.7-1.46,2.61-2.46,4.03c-0.32,0.46,4.56,2.63,4.38,3.16
		s-1.9,1.31-2.45,1.75c-0.34,0.27,1.98,3.79,2.28,5.61c0.23,1.84-1.23,2.25-1.23,3.86c0,1.5,1.98,3.34,2.63,4.73
		c0.32,0.69-1.14,2.48-1.23,3.16c-0.31,2.46-0.49,5.07-0.88,7.54c-0.65,4.21-5.98,7.41-9.12,9.82c-4.89,3.76-10.4,4.95-16.4,6.09
		c-0.55,0.1-8.82,2.3-8.83-6.88c0-5.11-0.31-10.22,0.02-15.31c0.26-3.94,3.2-8.81,3.99-12.83c1.29-6.52,0.98-12.1,4.63-17.49
		c4.49-2.32,11.3-7.61,14.87-2.44c0.4,0.57,1.12,0.69,1.65,0.21c1.59-2.39,3.04-3.43,4.62-2.2
		C129.34,275.18,128.82,278.51,128.82,279.21z"/>
	<path class="st12" d="M463.32,394.8c-0.06,0.12-0.08,0.23-0.09,0.34c-2.74,1.12-8.12,4.44-8.68,4.84
		c-9.87,7.14-21.03,11.94-31.06,18.74c-10.42,7.07-23.65,19.26-37.04,12.6c-12.53-6.23-2.53-32.16-12.41-34.41
		c-0.22-5.38,1.02-11.39,2.25-16.61c0.39-1.65,1.06-5.04,2.54-6.14c1.2-0.89,1.87-2.15,2.55-3.44c1.46-2.81,0.96-7.57,1.35-10.63
		c0.15-1.2,1.21-1.48,4.19-2.4c1.97-0.6,8.6-3.49,10.48-4.34c14.67-6.64,25.14-16.46,32.86-28.56c0.82,0.63,1.78,1.07,2.95,1.11
		c0.54,0.02,1.19-0.17,1.67-0.38c1.64-0.71,1.61-0.17,3.1,0.94c2.18,1.63,5,1.07,7.22-0.08c1.36,2.11,2.51,2.23,4.87,3.79
		c0.67,0.44,1.6-0.14,1.58-0.91c-0.13-6.79,8.21-10.77,8.67-2.15c0.02,0.44,0.3,0.92,0.77,1.02c2.18,0.43,4.35,0.79,6.57,1
		c0.98,0.09,4.26-0.68,4.61,0.89c0.35,1.59,0.74,3.16,1.11,4.75c1.44,6.11,1.22,11.77,0.17,17.93c-0.82,4.82-4.06,14.92,0.11,19.14
		c-2.3,3.82-6.36,6.21-9.06,9.77C461.1,386.23,465.74,390.01,463.32,394.8z"/>
	<path class="st13" d="M561.81,250.84c-1.1,23.4,1.49,44.85-3.72,67.86c-6.42,28.37-34.84,51.4-59.42,63.97
		c-8.69,4.44-18.47,6.67-27.67,9.79c-1.56,0.53-3.39,1.09-5.26,1.74c0.89-3.94-1.61-7.76,0.68-11.53c2.49-4.11,7.25-6.12,9.5-10.51
		c0.28-0.54,0.12-1.1-0.38-1.44c-4.5-3.07-0.12-16.01,0.48-20.36c1.13-8.17-0.41-14.89-2.16-22.82c-0.09-0.41-0.58-0.83-1.01-0.77
		c-0.08,0.01-0.16,0.01-0.24,0.02c0.85-5.14,3.21-8.81,9.29-7.29c0.81,0.2,1.46-0.51,1.3-1.29c-1.57-7.65,4.71-11.46,10.51-15.34
		c0.29-0.19,1.89-7.65,2.13-9.5c0.25-1.85-1.3-5.52,1.02-4.32c1.5,0.77,3.73,1.12,4.86-0.51c3.28-4.76-0.83-10.18,2.06-15
		c1.81,2.14,4.39,4.4,6.77,1.83c2.43-2.62,1.95-7.78,1.11-11.43c1.16,0.22,2.31,0.29,3.56,0.3c0.55,0,1.08-0.48,1.05-1.05
		c-0.45-8.55,1.54-16.06-1.11-24.32c6.59-0.71,8.93,9.97,15.92,6.84c2.62-1.18,2.89-4.71,2.81-7.13c-0.06-1.66-0.46-3.34-0.8-4.96
		c-0.54-2.6-2.2-5.21,1.51-5.29c0.73-0.02,1.13-0.66,1.01-1.33c-0.52-3.03-0.87-6.04-1.65-8.99c1.98,0.43,3.98,0.6,5.85,1.56
		c0.59,0.3,1.37,0.06,1.55-0.63c1.11-4.43,0.31-8.64-0.5-13.01c7.57-1.07,10.35-7.82,13.39-14.17c6.56,6.58,7.23,17.76,7.85,26.46
		C562.87,229.07,562.31,240,561.81,250.84z"/>
	<path class="st14" d="M503.27,274.59c-1.08,2.7-0.36,5.55-0.22,8.35C503.35,280.41,502.8,277.48,503.27,274.59z"/>
	<path class="st15" d="M192.86,466.53c1.22-1.1,3.84-2.56,7.43-2.05c3.58,0.51-1.28-6.14-4.35-5.12
		C192.86,460.38,190.3,468.83,192.86,466.53z"/>
	<path class="st15" d="M162.13,473.95c2.45-1.55,6.15-2.05,9.22-1.79c3.07,0.25-1.79-5.38-5.63-4.87
		C161.87,467.81,158.53,476.24,162.13,473.95z"/>
	<path class="st6" d="M299.29,374.56c-0.54-4.44,1.6-11.67,10.07-15.18c8.47-3.51,15.98,3.36,15.82,6.87s-9.63,0.87-14.22,2.56
		C304.89,371.05,300.09,381.11,299.29,374.56z"/>
	<path class="st6" d="M70.52,510.3c1.99,0.28,7.78-0.8,9.03-1.88c1.26-1.08,3.24,8.81-1.62,10.61
		C73.09,520.82,68,509.94,70.52,510.3z"/>
	<path class="st6" d="M84.95,507.52c1.65-0.17,10.88-0.64,13.03-0.46c2.16,0.18,0.84,12.11-7.64,12.32
		C85.61,519.5,81.35,507.88,84.95,507.52z"/>
	<path class="st16" d="M105.92,507.06c2.15-0.28,11.77-1.03,14.83-1.57s1.46,10.54-5.85,11.59
		C107.59,518.13,101.78,507.6,105.92,507.06z"/>
	<path class="st16" d="M129.2,504.87c5.52-0.64,14.83-2.29,19.32-3.24c4.49-0.94,0.83,14.2-7.83,15.97
		C132.02,519.38,124.71,505.39,129.2,504.87z"/>
	<path class="st17" d="M58.64,450.04c1.2,2.59,3.56,2.87,5.19,2.47c1.62-0.4,8.17-20.52,5.89-20.93
		C63.13,430.38,57.54,447.65,58.64,450.04z"/>
	<path class="st17" d="M68.52,453.58c1.5,0.68,3.25,2.57,5.55,2.3c2.3-0.27,8.64-23.46,4.04-24.01
		C73.5,431.33,67.03,452.9,68.52,453.58z"/>
	<path class="st17" d="M78.12,456.02c1.83-0.5,7.98,0.14,8.93,0.41s6.67-22.25,1.53-22.65C83.44,433.36,76.64,456.42,78.12,456.02z"
		/>
	<path class="st17" d="M91.92,457.1c1.78,0.08,8.52,0.81,9.74,0.81c1.22,0,1.9-22.03-2.7-22.84S88.81,456.96,91.92,457.1z"/>
	<path class="st17" d="M111.53,457.1c1.35-0.17,10.01-1.22,11.36-1.22s-0.17-19.41-7.47-19.81
		C108.12,435.66,107.21,457.64,111.53,457.1z"/>
	<path class="st17" d="M130.88,454.66c1.49,0,11.77-1.62,13.39-1.76s0.54-12.58-6.22-11.5
		C131.28,442.49,127.23,454.66,130.88,454.66z"/>
	<path class="st17" d="M154.01,451.55c2.31-0.19,11.5-1.9,14.74-2.84c3.25-0.94,1.08-11.49-7.98-10.41
		C151.71,439.38,147.65,452.09,154.01,451.55z"/>
	<path class="st17" d="M182.1,444.91c2.8-0.35,13.35-2.23,15.44-2.23s-3.79-7.59-12.04-7.72
		C177.26,434.83,176.87,445.57,182.1,444.91z"/>
</g>
</svg>
